<svg xmlns="http://www.w3.org/2000/svg" xmlns:xlink="http://www.w3.org/1999/xlink" width="500" zoomAndPan="magnify" viewBox="0 0 375 374.999991" height="500" preserveAspectRatio="xMidYMid meet" version="1.0"><defs><clipPath id="2b086d8635"><path d="M 18.75 18.75 L 356.25 18.75 L 356.25 356.25 L 18.75 356.25 Z M 18.75 18.75 " clip-rule="nonzero"/></clipPath><clipPath id="d427bd97b1"><path d="M 67.5 18.75 L 307.5 18.75 C 320.429688 18.75 332.828125 23.886719 341.972656 33.027344 C 351.113281 42.171875 356.25 54.570312 356.25 67.5 L 356.25 307.5 C 356.25 320.429688 351.113281 332.828125 341.972656 341.972656 C 332.828125 351.113281 320.429688 356.25 307.5 356.25 L 67.5 356.25 C 54.570312 356.25 42.171875 351.113281 33.027344 341.972656 C 23.886719 332.828125 18.75 320.429688 18.75 307.5 L 18.75 67.5 C 18.75 54.570312 23.886719 42.171875 33.027344 33.027344 C 42.171875 23.886719 54.570312 18.75 67.5 18.75 Z M 67.5 18.75 " clip-rule="nonzero"/></clipPath><clipPath id="98e2fdb8f8"><path d="M 88 66 L 242 66 L 242 375 L 88 375 Z M 88 66 " clip-rule="nonzero"/></clipPath><clipPath id="223b4749d9"><path d="M -38.226562 174.511719 L 217.839844 52.851562 L 329.203125 287.242188 L 73.132812 408.902344 Z M -38.226562 174.511719 " clip-rule="nonzero"/></clipPath><clipPath id="6ac0c5af93"><path d="M -38.226562 174.511719 L 217.839844 52.851562 L 376.515625 386.824219 L 120.445312 508.484375 Z M -38.226562 174.511719 " clip-rule="nonzero"/></clipPath><clipPath id="4bf29e1ebd"><path d="M 129 132 L 130 132 L 130 133 L 129 133 Z M 129 132 " clip-rule="nonzero"/></clipPath><clipPath id="13abbdc1dd"><path d="M -38.226562 174.511719 L 217.839844 52.851562 L 329.203125 287.242188 L 73.132812 408.902344 Z M -38.226562 174.511719 " clip-rule="nonzero"/></clipPath><clipPath id="ea6d00022a"><path d="M -38.226562 174.511719 L 217.839844 52.851562 L 376.515625 386.824219 L 120.445312 508.484375 Z M -38.226562 174.511719 " clip-rule="nonzero"/></clipPath><clipPath id="4011bb06a7"><path d="M 54.484375 179.367188 L 138 179.367188 L 138 263 L 54.484375 263 Z M 54.484375 179.367188 " clip-rule="nonzero"/></clipPath><clipPath id="d96bbc67a2"><path d="M 121 221 L 163.984375 221 L 163.984375 263.367188 L 121 263.367188 Z M 121 221 " clip-rule="nonzero"/></clipPath><clipPath id="14a48e3dec"><path d="M 233.371094 176.171875 L 282.121094 176.171875 L 282.121094 225 L 233.371094 225 Z M 233.371094 176.171875 " clip-rule="nonzero"/></clipPath><clipPath id="0ef6f21e1f"><path d="M 233.371094 215 L 258 215 L 258 239.921875 L 233.371094 239.921875 Z M 233.371094 215 " clip-rule="nonzero"/></clipPath><clipPath id="3e25ac0aa5"><path d="M 128.519531 304.957031 L 274.695312 304.957031 L 274.695312 350.921875 L 128.519531 350.921875 Z M 128.519531 304.957031 " clip-rule="nonzero"/></clipPath><clipPath id="0ce8a16dab"><path d="M 107.585938 356.25 L 220.085938 356.25 L 220.085938 375 L 107.585938 375 Z M 107.585938 356.25 " clip-rule="nonzero"/></clipPath></defs><rect x="-37.5" width="450" fill="#ffffff" y="-37.499999" height="449.999989" fill-opacity="1"/><rect x="-37.5" width="450" fill="#f2efdd" y="-37.499999" height="449.999989" fill-opacity="1"/><g clip-path="url(#2b086d8635)"><g clip-path="url(#d427bd97b1)"><path fill="#f2efdd" d="M 18.75 18.75 L 356.25 18.75 L 356.25 356.25 L 18.75 356.25 Z M 18.75 18.75 " fill-opacity="1" fill-rule="nonzero"/><path stroke-linecap="butt" transform="matrix(0.75, 0, 0, 0.75, 18.750003, 18.749999)" fill="none" stroke-linejoin="miter" d="M 65 0.00000164167 L 385.000021 0.00000164167 C 402.239605 0.00000164167 418.770856 6.84896 430.963566 19.036461 C 443.151066 31.22917 450.000025 47.760421 450.000025 65.000006 L 450.000025 385.000027 C 450.000025 402.239611 443.151066 418.770862 430.963566 430.963572 C 418.770856 443.151072 402.239605 450.000031 385.000021 450.000031 L 65 450.000031 C 47.760415 450.000031 31.229164 443.151072 19.036455 430.963572 C 6.848954 418.770862 -0.00000435833 402.239611 -0.00000435833 385.000027 L -0.00000435833 65.000006 C -0.00000435833 47.760421 6.848954 31.22917 19.036455 19.036461 C 31.229164 6.84896 47.760415 0.00000164167 65 0.00000164167 Z M 65 0.00000164167 " stroke="#3d081b" stroke-width="14" stroke-opacity="1" stroke-miterlimit="4"/></g></g><g clip-path="url(#98e2fdb8f8)"><g clip-path="url(#223b4749d9)"><g clip-path="url(#6ac0c5af93)"><path fill="#3d081b" d="M 129.011719 132.179688 C 129.011719 132.179688 129.007812 132.167969 129.027344 132.160156 C 129.042969 132.191406 129.042969 132.246094 129.042969 132.246094 L 129.074219 132.335938 C 129.105469 132.484375 129.089844 132.59375 129.160156 132.910156 C 129.273438 133.429688 129.382812 133.964844 129.546875 134.589844 C 130.175781 136.984375 131.058594 139.816406 132.0625 142.75 L 132.140625 143.046875 C 132.445312 143.886719 132.574219 144.691406 132.992188 145.625 C 133.410156 146.585938 133.832031 147.585938 134.238281 148.617188 C 135.144531 150.773438 135.832031 152.953125 136.5625 155.214844 C 137.296875 157.519531 138.121094 159.699219 138.9375 161.949219 C 139.417969 162.988281 139.914062 164.03125 140.386719 165.085938 C 140.515625 165.359375 140.601562 165.625 140.753906 165.886719 L 141.265625 166.707031 C 141.613281 167.273438 141.957031 167.832031 142.308594 168.398438 C 142.753906 169.117188 143.199219 169.855469 143.65625 170.570312 C 144.09375 171.148438 144.554688 171.726562 145 172.300781 C 146.023438 173.613281 147.015625 174.917969 147.984375 176.175781 C 148.949219 177.449219 149.914062 178.695312 150.859375 179.925781 C 151.828125 181.15625 152.785156 182.328125 153.710938 183.488281 C 155.589844 185.847656 157.339844 187.960938 158.960938 190.199219 C 159.398438 190.78125 159.828125 191.347656 160.222656 191.933594 C 162.414062 195.984375 164.359375 199.574219 165.671875 204.042969 C 166.375 206.535156 167.132812 209.613281 168.03125 213.183594 C 168.398438 214.992188 168.78125 216.945312 169.195312 219 C 169.390625 220.027344 169.632812 221.097656 169.804688 222.1875 C 169.953125 223.277344 170.105469 224.390625 170.273438 225.523438 C 171.570312 234.699219 172.402344 245.726562 172.539062 258 C 172.714844 270.257812 171.925781 283.757812 170.128906 297.789062 C 169.742188 301.316406 169.171875 304.773438 168.605469 308.175781 C 168.058594 311.589844 167.515625 314.957031 166.8125 318.179688 C 166.191406 321.421875 165.445312 324.613281 164.960938 327.707031 C 164.6875 329.238281 164.4375 330.753906 164.195312 332.257812 C 163.933594 333.753906 163.652344 335.234375 163.5625 336.726562 C 162.210938 348.5625 162.371094 359.496094 162.167969 368.707031 C 162.066406 373.3125 161.914062 377.5 161.691406 381.179688 C 161.367188 384.863281 161.171875 388.046875 160.746094 390.59375 C 159.898438 395.675781 159.246094 398.476562 158.855469 398.4375 C 158.460938 398.398438 158.378906 395.558594 158.519531 390.507812 C 157.199219 392.574219 155.332031 394.804688 152.78125 397.03125 C 152.78125 397.03125 151.730469 397.929688 149.542969 399.515625 C 147.363281 401.125 143.96875 403.21875 139.410156 405.621094 C 137.140625 406.753906 134.601562 408.054688 131.792969 409.480469 C 128.988281 410.894531 126.082031 412.421875 122.726562 414.242188 C 119.429688 416.019531 115.917969 417.929688 112.203125 420.109375 C 108.523438 422.285156 104.617188 424.710938 100.867188 427.574219 C 99.054688 429.007812 97.132812 430.613281 95.933594 432.234375 C 94.855469 433.722656 94.398438 435.511719 94.78125 437.632812 C 95.128906 439.734375 96.253906 442.050781 97.726562 444.308594 C 99.195312 446.558594 101.035156 448.773438 103.035156 450.96875 C 105.050781 453.167969 107.269531 455.339844 109.582031 457.574219 C 110.746094 458.683594 111.925781 459.816406 113.128906 460.949219 C 114.339844 462.070312 115.539062 463.191406 116.753906 464.320312 C 121.71875 468.863281 126.925781 473.542969 132.628906 477.925781 C 134.082031 478.992188 135.527344 480.105469 137.019531 481.140625 C 138.542969 482.109375 140.035156 483.226562 141.617188 484.125 C 144.871094 486.070312 147.847656 487.792969 150.894531 487.570312 C 153.886719 487.53125 156.855469 485.574219 159.578125 482.921875 C 162.320312 480.261719 164.875 476.980469 167.679688 473.691406 C 169.117188 471.957031 170.597656 470.453125 172.085938 468.851562 C 173.570312 467.292969 175.070312 465.6875 176.570312 464.082031 C 179.605469 460.855469 182.65625 457.582031 185.933594 454.398438 C 189.175781 451.164062 192.460938 447.871094 195.796875 444.554688 C 199.273438 441.34375 202.777344 438.066406 206.382812 434.875 C 208.1875 433.257812 209.9375 431.652344 211.65625 430.050781 C 213.34375 428.421875 215.136719 426.875 216.71875 425.246094 C 218.300781 423.589844 219.871094 421.960938 221.421875 420.347656 C 222.277344 419.542969 222.796875 418.707031 223.460938 417.886719 C 224.03125 417.042969 224.628906 416.171875 225.105469 415.292969 C 227.089844 411.738281 227.6875 407.894531 227.554688 403.722656 C 227.441406 399.539062 226.890625 395.097656 226.933594 390.730469 C 226.777344 381.941406 227.929688 373.640625 228.738281 365.808594 C 229.605469 357.945312 230.027344 350.5625 229.441406 343.417969 C 228.757812 336.148438 228.09375 329.148438 227.460938 322.441406 C 227.304688 320.769531 227.128906 319.105469 226.976562 317.472656 C 226.828125 315.839844 226.578125 314.222656 226.378906 312.625 C 225.964844 309.425781 225.5625 306.3125 225.171875 303.246094 C 224.773438 300.195312 224.378906 297.238281 224.011719 294.335938 C 223.628906 291.425781 223.292969 288.589844 222.757812 285.921875 C 221.90625 280.570312 220.628906 275.503906 219.449219 270.746094 C 216.835938 261.15625 214.53125 252.722656 212.527344 245.476562 C 210.699219 238.097656 209.433594 231.796875 208.746094 226.644531 C 208.472656 224.058594 208.222656 221.792969 208.019531 219.847656 C 207.816406 217.933594 207.761719 216.507812 207.589844 215.214844 C 207.335938 212.699219 207.195312 211.417969 207.195312 211.417969 C 206.886719 208.195312 206.824219 205.34375 206.996094 202.933594 C 206.359375 204.421875 205.789062 205.851562 205.304688 207.214844 C 204.523438 209.410156 204.003906 211.457031 203.621094 213.199219 C 202.886719 216.664062 202.667969 218.980469 202.019531 219.046875 C 201.488281 219.101562 200.597656 216.804688 200.605469 212.871094 C 200.632812 210.914062 200.859375 208.566406 201.523438 206.066406 C 202.175781 203.570312 203.136719 200.914062 204.410156 198.269531 C 206.132812 194.667969 207.964844 191.546875 209.570312 188.902344 C 209.578125 188.859375 209.59375 188.8125 209.601562 188.769531 C 210.632812 185.425781 211.804688 182.257812 212.996094 179.214844 C 214.140625 176.191406 215.296875 173.242188 216.402344 170.359375 C 216.9375 168.933594 217.4375 167.523438 217.878906 166.152344 C 218.105469 165.457031 218.273438 164.769531 218.46875 164.089844 C 218.714844 163.34375 218.960938 162.628906 219.195312 161.917969 C 222.742188 150.195312 227.933594 140.800781 231.453125 131.960938 C 233.363281 127.574219 234.933594 123.457031 236.027344 119.460938 C 236.558594 117.460938 237.058594 115.492188 237.328125 113.617188 C 237.503906 112.667969 237.546875 111.78125 237.625 110.878906 C 237.675781 109.976562 237.703125 108.949219 237.695312 108.140625 C 237.691406 107.914062 237.679688 107.722656 237.667969 107.527344 L 237.65625 107.277344 C 237.660156 107.199219 237.632812 107.117188 237.617188 107.03125 C 237.574219 106.90625 237.535156 106.550781 237.34375 106.734375 C 237.191406 106.808594 237.0625 106.867188 236.867188 106.988281 C 236.605469 107.21875 236.347656 107.433594 236.089844 107.652344 C 235.820312 107.925781 235.570312 108.179688 235.316406 108.429688 C 233.304688 110.613281 231.945312 113.21875 230.808594 115.730469 C 229.679688 118.277344 228.757812 120.742188 227.816406 123.015625 C 226.914062 125.324219 225.777344 127.328125 224.785156 129.160156 C 223.429688 131.523438 221.96875 133.9375 220.375 136.160156 C 220.054688 136.605469 214.449219 141.703125 214.378906 140.632812 C 214.210938 138.339844 215.914062 135.960938 216.980469 133.917969 C 219.296875 129.488281 218.699219 124.28125 220.054688 119.601562 C 220.476562 118.160156 220.90625 116.742188 221.328125 115.332031 C 221.726562 113.902344 222.035156 112.476562 222.390625 111.09375 C 223.101562 108.277344 223.753906 105.609375 224.371094 103.050781 C 225.589844 97.96875 226.523438 93.367188 226.902344 89.546875 C 227.082031 87.625 227.132812 85.910156 226.925781 84.5 C 226.824219 83.804688 226.640625 83.222656 226.441406 82.71875 C 226.1875 82.292969 225.933594 81.933594 225.605469 81.742188 C 225.28125 81.566406 224.9375 81.488281 224.625 81.421875 C 223.933594 81.671875 223.054688 82.621094 222.28125 83.855469 C 221.355469 85.347656 220.445312 87.246094 219.546875 89.390625 C 218.648438 91.539062 217.773438 93.953125 216.910156 96.589844 C 216.480469 97.898438 216.039062 99.292969 215.652344 100.664062 C 215.308594 101.933594 215.058594 103.476562 214.773438 105.039062 C 213.351562 112.46875 212.050781 123.484375 203.839844 126.742188 C 202.910156 125.347656 202.933594 123.882812 203.191406 122.296875 C 204.09375 116.574219 205.058594 110.8125 206.359375 105.171875 C 207.183594 101.503906 208.074219 98.027344 208.648438 94.53125 C 209.304688 91.085938 209.90625 87.816406 210.476562 84.761719 C 211.054688 81.714844 212.539062 70.972656 208.476562 69.398438 C 204.820312 67.980469 203.214844 78.296875 202.441406 80.449219 C 201.65625 82.980469 200.957031 85.792969 200.097656 88.773438 C 199.445312 91.828125 198.582031 94.941406 197.925781 98.464844 C 197.582031 100.175781 197.222656 101.917969 196.871094 103.695312 C 196.507812 105.707031 196.070312 107.554688 195.566406 109.5 C 195.078125 111.410156 194.496094 113.355469 193.8125 115.332031 C 193.128906 117.308594 192.40625 119.289062 191.191406 121.414062 C 190.652344 122.242188 190.195312 123.101562 188.976562 124.09375 C 188.460938 124.550781 187.226562 125.203125 185.820312 125.042969 C 184.300781 124.847656 183.515625 124.007812 183.003906 123.464844 C 182.515625 122.855469 182.210938 122.347656 181.945312 121.792969 C 181.65625 121.1875 181.574219 120.867188 181.441406 120.503906 L 181.394531 120.378906 L 181.351562 120.292969 L 181.277344 120.046875 C 181.265625 120 181.203125 119.667969 181.203125 119.667969 L 181.070312 119 L 180.839844 117.671875 C 180.378906 114.210938 180.515625 111.082031 180.738281 108.097656 C 181.199219 102.148438 182.128906 96.761719 182.597656 92.117188 C 182.695312 90.28125 182.785156 88.507812 182.878906 86.851562 C 182.941406 85.167969 182.980469 83.59375 182.976562 82.128906 C 182.976562 79.183594 182.808594 76.625 182.324219 74.816406 C 182.054688 73.917969 181.71875 73.238281 181.386719 72.984375 C 181.097656 72.707031 180.585938 72.671875 180.089844 72.773438 C 179.976562 72.8125 179.855469 72.84375 179.753906 72.878906 C 179.394531 73.15625 179.050781 73.585938 178.730469 74.203125 C 177.363281 76.8125 176.621094 81.617188 176.125 87.460938 C 175.898438 90.433594 175.761719 93.617188 175.5625 97.230469 C 175.171875 100.839844 174.78125 104.636719 174.183594 108.625 C 173.46875 112.578125 172.859375 116.757812 171.820312 121.046875 C 171.320312 123.191406 170.902344 125.417969 170.304688 127.578125 C 169.71875 129.738281 169.117188 131.914062 168.503906 134.125 C 168.226562 135.230469 167.9375 136.324219 167.648438 137.421875 C 167.316406 138.550781 167 139.675781 166.621094 140.789062 C 165.886719 142.992188 165.035156 145.152344 164.039062 147.226562 C 163.015625 149.3125 161.847656 151.359375 160.203125 153.21875 C 159.816406 153.667969 159.152344 154.265625 158.726562 154.652344 L 158.097656 155.125 L 157.777344 155.371094 L 157.597656 155.46875 L 157.234375 155.683594 C 156.28125 156.257812 155.34375 156.808594 154.15625 157.277344 C 153.609375 157.527344 152.894531 157.703125 152.15625 157.855469 C 151.71875 157.890625 151.304688 157.914062 150.851562 157.914062 C 150.34375 157.824219 149.835938 157.769531 149.359375 157.546875 C 148.878906 157.320312 148.378906 157.078125 148.046875 156.742188 C 147.695312 156.429688 147.363281 156.066406 147.171875 155.773438 C 146.9375 155.445312 146.730469 155.128906 146.613281 154.851562 C 146.464844 154.5625 146.300781 154.28125 146.222656 154.027344 C 145.402344 151.910156 145.042969 150.28125 144.46875 148.714844 C 143.308594 145.320312 142.28125 142.316406 141.109375 139.625 C 139.984375 136.949219 138.808594 134.613281 137.554688 132.785156 C 136.308594 130.949219 134.988281 129.6875 133.753906 129.273438 C 132.917969 128.9375 132.097656 129.035156 131.425781 129.191406 C 130.972656 129.382812 130.5 129.621094 130.089844 129.988281 C 129.859375 130.207031 129.632812 130.511719 129.480469 130.757812 C 129.441406 130.894531 129.378906 131.019531 129.296875 131.125 C 129.230469 131.238281 129.164062 131.628906 129.089844 131.863281 L 129.027344 132.160156 C 129.007812 132.167969 129.007812 132.167969 129.011719 132.179688 Z M 127.566406 144.097656 C 126.722656 140.863281 126.15625 137.988281 125.804688 135.261719 C 125.703125 134.605469 125.671875 133.886719 125.640625 133.207031 C 125.59375 132.910156 125.625 132.417969 125.691406 131.972656 L 125.738281 131.644531 L 125.761719 131.472656 L 125.777344 131.398438 L 125.816406 131.21875 C 125.832031 131.171875 126.011719 130.792969 126.011719 130.792969 C 126.140625 130.503906 126.183594 130.3125 126.394531 129.972656 C 126.609375 129.644531 126.824219 129.3125 127.058594 129.015625 C 127.554688 128.460938 128.039062 128.058594 128.550781 127.761719 C 130.164062 126.902344 131.589844 126.902344 132.636719 127.113281 C 133.144531 127.03125 133.679688 127.015625 134.234375 127.085938 C 136.363281 127.367188 138.375 128.878906 140.074219 130.800781 C 141.777344 132.738281 143.316406 135.136719 144.769531 137.886719 C 146.238281 140.613281 147.5625 143.765625 148.910156 146.992188 C 149.609375 148.710938 150.210938 150.625 150.839844 152.003906 C 150.914062 152.195312 150.984375 152.308594 151.074219 152.441406 C 151.144531 152.59375 151.191406 152.664062 151.25 152.703125 C 151.269531 152.71875 151.304688 152.703125 151.339844 152.699219 C 151.570312 152.617188 151.800781 152.574219 152.164062 152.386719 C 153.453125 151.789062 155.460938 150.582031 156.082031 149.621094 C 157.15625 148.324219 158.125 146.636719 158.972656 144.835938 C 159.804688 143 160.550781 141.035156 161.214844 139.015625 C 161.539062 137.992188 161.832031 136.949219 162.125 135.917969 L 162.53125 134.335938 L 162.992188 132.585938 C 163.609375 130.386719 164.21875 128.191406 164.808594 126.046875 C 165.429688 123.898438 165.847656 121.808594 166.355469 119.742188 C 167.441406 115.640625 168.152344 111.558594 168.980469 107.726562 C 169.707031 103.878906 170.273438 100.167969 170.824219 96.761719 C 171.214844 93.351562 171.609375 89.953125 172.121094 86.964844 C 173.175781 80.949219 174.480469 75.957031 176.90625 72.941406 C 177.511719 72.199219 178.261719 71.589844 179.042969 71.296875 C 179.546875 71.097656 180.007812 71.066406 180.433594 71.089844 C 180.949219 70.9375 181.582031 70.878906 182.316406 71.15625 C 183.519531 71.648438 184.226562 72.738281 184.785156 73.832031 C 185.851562 76.074219 186.367188 78.785156 186.742188 81.898438 C 186.914062 83.441406 187.027344 85.109375 187.101562 86.859375 C 187.191406 88.535156 187.183594 90.511719 187.242188 92.175781 L 187.253906 92.222656 L 187.238281 92.363281 C 187.074219 97.425781 186.410156 102.75 186.167969 108.433594 C 186.035156 111.230469 186.011719 114.160156 186.417969 116.804688 L 186.597656 117.746094 L 186.621094 117.816406 C 187.296875 116.496094 187.902344 114.96875 188.457031 113.449219 C 189.082031 111.648438 189.65625 109.832031 190.152344 108.023438 C 190.683594 106.222656 191.15625 104.386719 191.484375 102.726562 C 191.929688 100.886719 192.351562 99.089844 192.769531 97.332031 C 193.574219 93.871094 194.660156 90.527344 195.546875 87.457031 C 196.625 84.4375 197.589844 81.59375 198.636719 79.058594 C 199.761719 76.578125 200.816406 74.292969 201.742188 72.398438 C 202.386719 71.148438 203.0625 69.933594 203.855469 68.917969 C 204.121094 68.378906 204.550781 67.800781 205.296875 67.300781 C 205.589844 67.105469 205.925781 67 206.300781 66.917969 C 206.746094 66.730469 207.175781 66.632812 207.585938 66.625 C 210.246094 66.5625 212.386719 70.085938 213.335938 72.195312 C 213.480469 72.5 213.589844 72.820312 213.714844 73.160156 L 213.757812 73.285156 L 213.78125 73.328125 C 213.796875 73.363281 213.828125 73.519531 213.828125 73.519531 L 213.890625 73.730469 L 214 74.183594 C 214.136719 74.8125 214.335938 75.398438 214.367188 76.195312 C 214.925781 85.019531 212.382812 93.195312 211.007812 101.84375 C 210.46875 105.191406 207.527344 110.855469 208.777344 114.070312 C 208.953125 114.558594 210.148438 110.128906 210.179688 109.886719 C 210.574219 107.992188 210.929688 105.828125 211.621094 104.003906 C 213.605469 98.769531 214.3125 93.25 216.925781 88.160156 C 218.03125 86.007812 219.195312 84.082031 220.429688 82.507812 C 221.074219 81.738281 221.746094 81.046875 222.507812 80.496094 C 223.25 79.957031 224.273438 79.527344 225.234375 79.761719 C 225.597656 79.855469 225.882812 80 226.136719 80.171875 C 226.179688 80.179688 226.195312 80.183594 226.242188 80.199219 C 226.953125 80.410156 227.628906 80.957031 228.144531 81.628906 C 228.632812 82.316406 229.011719 83.109375 229.25 83.957031 C 229.773438 85.667969 229.910156 87.585938 229.933594 89.679688 C 229.9375 93.835938 229.261719 98.660156 228.222656 103.898438 C 227.714844 106.5 227.132812 109.253906 226.488281 112.039062 C 226.152344 113.4375 225.871094 114.863281 225.472656 116.320312 C 225.054688 117.769531 224.632812 119.234375 224.191406 120.710938 C 223.988281 121.433594 223.785156 122.132812 223.585938 122.828125 C 224.070312 121.890625 224.425781 121.011719 224.851562 120.199219 C 225.539062 118.648438 226.179688 117.332031 226.742188 116.304688 C 226.96875 115.660156 227.214844 115 227.480469 114.328125 C 228.582031 111.605469 229.976562 108.597656 232.386719 105.796875 C 232.71875 105.457031 233.03125 105.105469 233.347656 104.769531 C 233.734375 104.425781 234.121094 104.09375 234.503906 103.753906 C 236.546875 101.945312 238.316406 101.664062 239.585938 102.429688 C 241.035156 103.261719 241.90625 105.351562 241.929688 108.007812 C 241.953125 109.089844 241.941406 109.988281 241.917969 111.039062 C 241.855469 112.082031 241.824219 113.1875 241.640625 114.234375 C 241.390625 116.367188 240.878906 118.460938 240.363281 120.597656 C 239.289062 124.894531 237.660156 129.332031 235.785156 133.765625 C 232.3125 142.824219 227.230469 152.328125 223.992188 163.300781 C 223.773438 163.992188 223.539062 164.675781 223.3125 165.371094 C 223.101562 166.136719 222.90625 166.898438 222.664062 167.652344 C 222.191406 169.15625 221.675781 170.640625 221.140625 172.121094 C 220.011719 175.015625 218.886719 178 217.71875 181.035156 C 216.574219 184.03125 215.433594 187.117188 214.472656 190.253906 C 213.804688 192.460938 213.214844 194.808594 212.988281 196.992188 C 213.011719 197.261719 213.058594 197.558594 213.089844 197.878906 C 213.265625 200.488281 213.597656 204.527344 214.21875 210.789062 C 214.21875 210.789062 214.355469 212.453125 214.613281 215.625 C 214.664062 216.4375 214.726562 217.355469 214.789062 218.351562 C 214.871094 219.3125 214.960938 220.363281 215.050781 221.480469 C 215.152344 222.589844 215.253906 223.78125 215.378906 225.082031 C 215.425781 225.710938 215.488281 226.375 215.546875 227.066406 C 215.632812 227.746094 215.773438 228.4375 215.886719 229.183594 C 216.40625 232.066406 216.769531 235.292969 217.640625 238.8125 C 218.019531 240.5625 218.4375 242.390625 218.859375 244.292969 C 219.335938 246.214844 219.84375 248.183594 220.363281 250.230469 C 222.417969 258.476562 225.214844 267.78125 227.378906 278.476562 C 227.917969 281.152344 228.316406 283.921875 228.816406 286.738281 C 229.292969 289.5625 229.515625 292.386719 229.90625 295.308594 C 230.582031 301.128906 231.3125 307.179688 232.066406 313.441406 C 232.792969 319.707031 233.207031 326.238281 233.824219 332.917969 C 234.113281 336.269531 234.40625 339.660156 234.699219 343.082031 C 234.878906 344.78125 234.847656 346.621094 234.910156 348.402344 C 235.011719 350.207031 234.9375 351.988281 234.851562 353.800781 C 234.335938 368.265625 230.738281 382.632812 232.1875 397.667969 C 232.429688 401.457031 232.789062 405.496094 232.136719 409.726562 C 231.5 413.960938 229.5625 418.011719 226.992188 421.339844 C 225.722656 423.125 224.246094 424.414062 222.867188 425.910156 C 221.449219 427.355469 220.074219 428.890625 218.578125 430.253906 C 215.628906 433.011719 212.664062 435.820312 209.652344 438.503906 C 203.570312 443.886719 197.816406 449.3125 192.320312 454.949219 C 189.570312 457.761719 186.734375 460.425781 184.109375 463.273438 C 181.464844 466.117188 178.820312 468.929688 176.234375 471.71875 C 174.941406 473.117188 173.585938 474.496094 172.375 475.898438 C 171.191406 477.273438 169.988281 478.722656 168.777344 480.179688 C 166.378906 483.089844 163.917969 486.058594 160.789062 488.609375 C 160.0625 489.261719 159.144531 489.804688 158.304688 490.390625 C 157.375 490.898438 156.488281 491.441406 155.449219 491.773438 C 154.46875 492.199219 153.367188 492.378906 152.3125 492.597656 C 151.773438 492.667969 151.230469 492.644531 150.6875 492.679688 C 150.132812 492.714844 149.609375 492.710938 149.074219 492.617188 L 147.492188 492.398438 C 146.984375 492.277344 146.476562 492.132812 145.988281 491.976562 C 144.953125 491.738281 144.074219 491.289062 143.164062 490.882812 C 142.199219 490.472656 141.488281 489.984375 140.679688 489.542969 L 138.277344 488.191406 C 132.074219 484.410156 126.597656 480.03125 121.425781 475.664062 C 118.863281 473.46875 116.363281 471.289062 113.9375 469.09375 C 111.503906 466.945312 109.070312 464.707031 106.839844 462.566406 C 102.246094 458.273438 97.6875 453.976562 94 448.984375 C 92.175781 446.492188 90.546875 443.789062 89.535156 440.660156 C 89.046875 439.09375 88.746094 437.394531 88.789062 435.640625 C 88.835938 433.914062 89.265625 432.097656 90.035156 430.585938 C 90.449219 429.859375 90.890625 429.046875 91.386719 428.414062 C 91.871094 427.835938 92.351562 427.195312 92.863281 426.671875 C 93.367188 426.164062 93.882812 425.652344 94.367188 425.15625 C 94.90625 424.699219 95.421875 424.242188 95.925781 423.816406 C 97.992188 422.089844 100.074219 420.554688 102.128906 419.164062 C 106.210938 416.386719 110.179688 414.007812 113.902344 411.839844 C 117.65625 409.679688 121.0625 407.796875 124.320312 405.996094 C 127.589844 404.21875 130.550781 402.691406 133.199219 401.285156 C 138.460938 398.519531 142.277344 396.1875 144.671875 394.449219 C 145.898438 393.585938 146.757812 392.871094 147.34375 392.394531 C 147.914062 391.910156 148.203125 391.679688 148.203125 391.679688 C 152.574219 387.828125 154.929688 384.710938 156.589844 382.601562 C 157.308594 381.703125 157.921875 381.011719 158.480469 380.53125 C 158.398438 377.050781 158.265625 373.105469 158.117188 368.726562 C 157.800781 359.574219 157.203125 348.53125 158.328125 336.164062 C 158.390625 334.613281 158.632812 333.074219 158.878906 331.492188 C 159.113281 329.914062 159.34375 328.324219 159.574219 326.710938 C 160.035156 323.507812 160.730469 320.375 161.3125 317.117188 C 161.980469 313.839844 162.484375 310.5625 163 307.214844 C 163.542969 303.902344 164.070312 300.507812 164.457031 297.058594 C 166.230469 283.25 167.167969 270.011719 167.253906 257.980469 C 167.429688 245.929688 167.007812 235.042969 166.234375 225.960938 C 166.15625 224.816406 166.0625 223.699219 165.96875 222.597656 C 165.867188 221.515625 165.730469 220.5 165.59375 219.484375 C 164.726562 212.195312 161.957031 205.582031 158.902344 198.757812 C 158.402344 197.847656 158.023438 196.800781 157.355469 195.921875 C 157.054688 195.464844 156.738281 194.988281 156.414062 194.503906 C 156.035156 194.070312 155.660156 193.621094 155.273438 193.167969 C 153.621094 191.234375 151.640625 189.109375 149.699219 186.898438 C 148.710938 185.769531 147.707031 184.636719 146.675781 183.445312 C 145.6875 182.238281 144.679688 180.984375 143.644531 179.703125 C 142.613281 178.433594 141.574219 177.140625 140.519531 175.816406 L 139.738281 174.816406 L 139.339844 174.3125 L 139.132812 174.050781 L 139.039062 173.933594 C 139.003906 173.914062 138.824219 173.625 138.824219 173.625 L 138.792969 173.558594 C 138.328125 172.832031 137.882812 172.113281 137.433594 171.394531 C 137.09375 170.820312 136.738281 170.269531 136.390625 169.703125 L 135.890625 168.875 C 135.71875 168.570312 135.582031 168.222656 135.429688 167.90625 C 134.859375 166.621094 134.265625 165.316406 133.703125 164.050781 C 132.832031 161.574219 131.996094 159.105469 131.367188 156.832031 C 130.707031 154.546875 130.121094 152.28125 129.402344 150.316406 C 129.230469 149.839844 129.046875 149.339844 128.871094 148.863281 C 128.695312 148.320312 128.511719 147.796875 128.332031 147.253906 C 127.980469 146.316406 127.792969 145.164062 127.582031 144.160156 L 127.566406 144.097656 " fill-opacity="1" fill-rule="nonzero"/></g></g></g><g clip-path="url(#4bf29e1ebd)"><g clip-path="url(#13abbdc1dd)"><g clip-path="url(#ea6d00022a)"><path fill="#3d081b" d="M 129.027344 132.160156 C 129.007812 132.167969 129.011719 132.179688 129.011719 132.179688 C 129.007812 132.167969 129.007812 132.167969 129.027344 132.160156 " fill-opacity="1" fill-rule="nonzero"/></g></g></g><g clip-path="url(#4011bb06a7)"><path fill="#3d081b" d="M 97.070312 201.742188 C 97.195312 202.90625 97.421875 204.050781 97.742188 205.179688 C 98.0625 206.304688 98.476562 207.398438 98.980469 208.453125 C 99.484375 209.507812 100.074219 210.515625 100.75 211.472656 C 101.425781 212.425781 102.179688 213.320312 103.003906 214.148438 C 103.832031 214.976562 104.722656 215.730469 105.675781 216.40625 C 106.628906 217.082031 107.632812 217.675781 108.6875 218.179688 C 109.742188 218.6875 110.828125 219.101562 111.953125 219.421875 C 113.078125 219.746094 114.21875 219.96875 115.382812 220.097656 C 122.78125 220.835938 130.195312 221.171875 137.628906 221.113281 C 130.195312 221.050781 122.78125 221.390625 115.382812 222.128906 C 114.21875 222.257812 113.078125 222.480469 111.953125 222.800781 C 110.828125 223.125 109.742188 223.535156 108.6875 224.042969 C 107.632812 224.550781 106.628906 225.140625 105.675781 225.820312 C 104.722656 226.496094 103.832031 227.25 103.003906 228.078125 C 102.179688 228.90625 101.425781 229.796875 100.75 230.753906 C 100.074219 231.710938 99.484375 232.714844 98.980469 233.773438 C 98.476562 234.828125 98.0625 235.917969 97.742188 237.046875 C 97.421875 238.171875 97.195312 239.316406 97.070312 240.484375 C 96.332031 247.894531 95.996094 255.328125 96.054688 262.777344 C 96.117188 255.328125 95.777344 247.894531 95.042969 240.484375 C 94.914062 239.316406 94.691406 238.171875 94.371094 237.046875 C 94.050781 235.917969 93.636719 234.828125 93.132812 233.773438 C 92.625 232.714844 92.035156 231.710938 91.359375 230.753906 C 90.683594 229.796875 89.933594 228.90625 89.105469 228.078125 C 88.28125 227.25 87.390625 226.496094 86.4375 225.820312 C 85.484375 225.140625 84.480469 224.550781 83.425781 224.042969 C 82.371094 223.535156 81.28125 223.121094 80.160156 222.800781 C 79.035156 222.480469 77.890625 222.253906 76.730469 222.128906 C 69.332031 221.390625 61.917969 221.050781 54.484375 221.113281 C 61.917969 221.171875 69.332031 220.835938 76.730469 220.09375 C 77.890625 219.96875 79.035156 219.746094 80.160156 219.421875 C 81.28125 219.101562 82.371094 218.6875 83.425781 218.179688 C 84.480469 217.675781 85.484375 217.082031 86.4375 216.40625 C 87.390625 215.730469 88.28125 214.976562 89.105469 214.148438 C 89.933594 213.320312 90.683594 212.425781 91.359375 211.472656 C 92.035156 210.515625 92.625 209.507812 93.132812 208.453125 C 93.636719 207.398438 94.050781 206.304688 94.371094 205.179688 C 94.691406 204.050781 94.914062 202.90625 95.042969 201.742188 C 95.777344 194.328125 96.117188 186.898438 96.054688 179.445312 C 95.996094 186.898438 96.332031 194.328125 97.070312 201.742188 Z M 97.070312 201.742188 " fill-opacity="1" fill-rule="nonzero"/></g><g clip-path="url(#d96bbc67a2)"><path fill="#3d081b" d="M 143.484375 232.394531 C 143.546875 232.984375 143.660156 233.5625 143.824219 234.132812 C 143.984375 234.703125 144.195312 235.257812 144.449219 235.789062 C 144.703125 236.324219 145.003906 236.835938 145.34375 237.316406 C 145.6875 237.800781 146.066406 238.253906 146.484375 238.671875 C 146.902344 239.089844 147.355469 239.472656 147.835938 239.816406 C 148.320312 240.15625 148.828125 240.457031 149.359375 240.714844 C 149.894531 240.96875 150.445312 241.179688 151.015625 241.34375 C 151.582031 241.503906 152.160156 241.617188 152.75 241.683594 C 156.492188 242.054688 160.246094 242.226562 164.007812 242.195312 C 160.246094 242.164062 156.492188 242.335938 152.75 242.710938 C 152.160156 242.773438 151.582031 242.886719 151.015625 243.050781 C 150.445312 243.214844 149.894531 243.421875 149.359375 243.679688 C 148.828125 243.9375 148.320312 244.234375 147.835938 244.578125 C 147.355469 244.921875 146.902344 245.300781 146.484375 245.722656 C 146.066406 246.140625 145.6875 246.589844 145.34375 247.074219 C 145.003906 247.558594 144.703125 248.066406 144.449219 248.601562 C 144.195312 249.136719 143.984375 249.6875 143.824219 250.257812 C 143.660156 250.828125 143.546875 251.410156 143.484375 252 C 143.109375 255.75 142.9375 259.511719 142.96875 263.28125 C 143 259.511719 142.828125 255.75 142.457031 252 C 142.390625 251.410156 142.277344 250.828125 142.117188 250.257812 C 141.953125 249.6875 141.746094 249.136719 141.488281 248.601562 C 141.234375 248.066406 140.933594 247.558594 140.59375 247.074219 C 140.25 246.589844 139.871094 246.140625 139.453125 245.71875 C 139.035156 245.300781 138.585938 244.921875 138.101562 244.578125 C 137.617188 244.234375 137.109375 243.9375 136.578125 243.679688 C 136.042969 243.421875 135.492188 243.214844 134.925781 243.050781 C 134.355469 242.886719 133.777344 242.773438 133.1875 242.710938 C 129.445312 242.335938 125.695312 242.164062 121.933594 242.195312 C 125.695312 242.226562 129.445312 242.054688 133.1875 241.683594 C 133.777344 241.617188 134.355469 241.503906 134.925781 241.34375 C 135.492188 241.179688 136.042969 240.96875 136.578125 240.714844 C 137.109375 240.457031 137.617188 240.15625 138.101562 239.816406 C 138.585938 239.472656 139.035156 239.089844 139.453125 238.671875 C 139.871094 238.253906 140.25 237.800781 140.59375 237.316406 C 140.933594 236.835938 141.234375 236.324219 141.488281 235.789062 C 141.746094 235.257812 141.953125 234.703125 142.117188 234.132812 C 142.277344 233.5625 142.390625 232.984375 142.457031 232.394531 C 142.828125 228.644531 143.003906 224.882812 142.972656 221.113281 C 142.941406 224.882812 143.109375 228.644531 143.484375 232.394531 Z M 143.484375 232.394531 " fill-opacity="1" fill-rule="nonzero"/></g><path fill="#3d081b" d="M 127.667969 190.789062 C 127.75 191.511719 127.945312 192.203125 128.257812 192.859375 C 128.574219 193.519531 128.988281 194.105469 129.503906 194.621094 C 130.015625 195.136719 130.601562 195.550781 131.257812 195.867188 C 131.914062 196.179688 132.605469 196.378906 133.328125 196.457031 C 135.613281 196.6875 137.902344 196.789062 140.199219 196.773438 C 137.902344 196.753906 135.613281 196.859375 133.328125 197.085938 C 132.605469 197.164062 131.914062 197.363281 131.257812 197.675781 C 130.601562 197.992188 130.015625 198.40625 129.503906 198.921875 C 128.988281 199.4375 128.574219 200.027344 128.257812 200.683594 C 127.945312 201.339844 127.75 202.03125 127.667969 202.757812 C 127.441406 205.046875 127.335938 207.34375 127.355469 209.644531 C 127.375 207.34375 127.269531 205.046875 127.042969 202.757812 C 126.964844 202.03125 126.765625 201.339844 126.453125 200.683594 C 126.136719 200.027344 125.722656 199.4375 125.207031 198.921875 C 124.695312 198.40625 124.109375 197.992188 123.453125 197.675781 C 122.796875 197.363281 122.109375 197.164062 121.382812 197.085938 C 119.097656 196.859375 116.808594 196.753906 114.511719 196.773438 C 116.808594 196.789062 119.097656 196.6875 121.382812 196.457031 C 122.105469 196.378906 122.796875 196.179688 123.453125 195.867188 C 124.109375 195.550781 124.691406 195.136719 125.207031 194.621094 C 125.722656 194.105469 126.136719 193.515625 126.449219 192.859375 C 126.765625 192.203125 126.960938 191.511719 127.039062 190.789062 C 127.269531 188.496094 127.375 186.199219 127.355469 183.894531 C 127.335938 186.199219 127.441406 188.496094 127.667969 190.789062 Z M 127.667969 190.789062 " fill-opacity="1" fill-rule="nonzero"/><g clip-path="url(#14a48e3dec)"><path fill="#3d081b" d="M 269.136719 200.964844 C 268.460938 201.039062 267.796875 201.167969 267.144531 201.355469 C 266.488281 201.542969 265.855469 201.78125 265.242188 202.074219 C 264.628906 202.371094 264.046875 202.714844 263.492188 203.105469 C 262.9375 203.5 262.417969 203.9375 261.9375 204.417969 C 261.457031 204.898438 261.019531 205.417969 260.628906 205.972656 C 260.234375 206.527344 259.890625 207.113281 259.597656 207.726562 C 259.304688 208.339844 259.0625 208.972656 258.875 209.628906 C 258.691406 210.285156 258.558594 210.949219 258.484375 211.625 C 258.058594 215.933594 257.859375 220.25 257.894531 224.578125 C 257.929688 220.25 257.734375 215.933594 257.304688 211.625 C 257.230469 210.949219 257.101562 210.285156 256.914062 209.628906 C 256.730469 208.976562 256.488281 208.339844 256.195312 207.726562 C 255.902344 207.113281 255.558594 206.527344 255.164062 205.972656 C 254.773438 205.417969 254.335938 204.898438 253.855469 204.417969 C 253.375 203.9375 252.855469 203.5 252.300781 203.105469 C 251.746094 202.714844 251.164062 202.371094 250.550781 202.074219 C 249.9375 201.78125 249.304688 201.542969 248.648438 201.355469 C 247.996094 201.167969 247.332031 201.039062 246.65625 200.964844 C 242.351562 200.535156 238.039062 200.339844 233.714844 200.375 C 238.039062 200.410156 242.351562 200.210938 246.65625 199.78125 C 247.332031 199.710938 247.996094 199.578125 248.648438 199.390625 C 249.304688 199.207031 249.9375 198.964844 250.550781 198.671875 C 251.164062 198.375 251.746094 198.03125 252.300781 197.640625 C 252.855469 197.246094 253.375 196.808594 253.855469 196.328125 C 254.335938 195.847656 254.773438 195.328125 255.164062 194.773438 C 255.558594 194.21875 255.902344 193.632812 256.195312 193.019531 C 256.488281 192.40625 256.730469 191.773438 256.914062 191.117188 C 257.101562 190.464844 257.234375 189.796875 257.304688 189.121094 C 257.734375 184.816406 257.933594 180.5 257.894531 176.171875 C 257.859375 180.5 258.058594 184.816406 258.484375 189.121094 C 258.558594 189.796875 258.691406 190.464844 258.875 191.117188 C 259.0625 191.773438 259.304688 192.40625 259.597656 193.019531 C 259.890625 193.632812 260.234375 194.21875 260.628906 194.773438 C 261.019531 195.328125 261.457031 195.847656 261.9375 196.328125 C 262.417969 196.808594 262.9375 197.246094 263.492188 197.640625 C 264.046875 198.03125 264.628906 198.375 265.242188 198.671875 C 265.855469 198.964844 266.488281 199.207031 267.144531 199.390625 C 267.796875 199.578125 268.460938 199.710938 269.136719 199.78125 C 273.441406 200.210938 277.753906 200.410156 282.074219 200.375 C 277.753906 200.339844 273.441406 200.535156 269.136719 200.964844 Z M 269.136719 200.964844 " fill-opacity="1" fill-rule="nonzero"/></g><g clip-path="url(#0ef6f21e1f)"><path fill="#3d081b" d="M 251.347656 227.984375 C 250.660156 228.058594 250.003906 228.246094 249.378906 228.546875 C 248.753906 228.847656 248.195312 229.242188 247.707031 229.734375 C 247.214844 230.222656 246.820312 230.78125 246.519531 231.40625 C 246.222656 232.03125 246.035156 232.691406 245.957031 233.378906 C 245.742188 235.558594 245.640625 237.742188 245.660156 239.933594 C 245.679688 237.742188 245.578125 235.558594 245.363281 233.378906 C 245.285156 232.691406 245.097656 232.03125 244.800781 231.40625 C 244.5 230.78125 244.105469 230.222656 243.613281 229.734375 C 243.125 229.242188 242.566406 228.847656 241.941406 228.546875 C 241.316406 228.246094 240.660156 228.058594 239.972656 227.984375 C 237.792969 227.769531 235.613281 227.667969 233.425781 227.6875 C 235.613281 227.703125 237.792969 227.605469 239.972656 227.386719 C 240.660156 227.3125 241.316406 227.125 241.941406 226.824219 C 242.566406 226.523438 243.125 226.128906 243.613281 225.640625 C 244.105469 225.148438 244.5 224.589844 244.800781 223.964844 C 245.097656 223.339844 245.285156 222.683594 245.363281 221.992188 C 245.578125 219.8125 245.679688 217.628906 245.660156 215.4375 C 245.640625 217.628906 245.742188 219.8125 245.957031 221.992188 C 246.035156 222.683594 246.222656 223.339844 246.519531 223.964844 C 246.820312 224.589844 247.214844 225.148438 247.707031 225.640625 C 248.195312 226.128906 248.753906 226.523438 249.378906 226.824219 C 250.003906 227.125 250.660156 227.3125 251.347656 227.386719 C 253.527344 227.605469 255.707031 227.707031 257.894531 227.6875 C 255.707031 227.667969 253.527344 227.769531 251.347656 227.984375 Z M 251.347656 227.984375 " fill-opacity="1" fill-rule="nonzero"/></g><path fill="#3d081b" d="M 275.496094 218.777344 C 275.074219 218.824219 274.671875 218.9375 274.292969 219.121094 C 273.910156 219.304688 273.570312 219.546875 273.269531 219.847656 C 272.972656 220.144531 272.730469 220.484375 272.546875 220.867188 C 272.363281 221.25 272.25 221.652344 272.203125 222.074219 C 272.070312 223.402344 272.011719 224.738281 272.023438 226.074219 C 272.03125 224.738281 271.972656 223.402344 271.839844 222.074219 C 271.792969 221.652344 271.679688 221.25 271.496094 220.867188 C 271.3125 220.484375 271.074219 220.144531 270.773438 219.847656 C 270.472656 219.546875 270.132812 219.304688 269.75 219.121094 C 269.371094 218.9375 268.96875 218.824219 268.546875 218.777344 C 267.21875 218.644531 265.886719 218.585938 264.550781 218.597656 C 265.886719 218.605469 267.21875 218.546875 268.546875 218.414062 C 268.96875 218.367188 269.371094 218.253906 269.75 218.070312 C 270.132812 217.886719 270.472656 217.644531 270.773438 217.347656 C 271.074219 217.046875 271.3125 216.707031 271.496094 216.324219 C 271.679688 215.941406 271.792969 215.539062 271.839844 215.121094 C 271.972656 213.789062 272.03125 212.453125 272.023438 211.117188 C 272.011719 212.453125 272.070312 213.789062 272.203125 215.121094 C 272.25 215.539062 272.363281 215.941406 272.546875 216.324219 C 272.730469 216.707031 272.972656 217.046875 273.269531 217.34375 C 273.570312 217.644531 273.910156 217.886719 274.292969 218.070312 C 274.671875 218.25 275.074219 218.367188 275.496094 218.414062 C 276.824219 218.546875 278.15625 218.605469 279.492188 218.597656 C 278.15625 218.585938 276.824219 218.644531 275.496094 218.777344 Z M 275.496094 218.777344 " fill-opacity="1" fill-rule="nonzero"/><g clip-path="url(#3e25ac0aa5)"><path fill="#f2efdd" d="M 128.519531 304.957031 L 274.695312 304.957031 L 274.695312 350.921875 L 128.519531 350.921875 Z M 128.519531 304.957031 " fill-opacity="1" fill-rule="nonzero"/></g><g clip-path="url(#0ce8a16dab)"><path fill="#f2efdd" d="M 107.585938 356.25 L 220.085938 356.25 L 220.085938 398.503906 L 107.585938 398.503906 Z M 107.585938 356.25 " fill-opacity="1" fill-rule="nonzero"/></g></svg>